<svg width="1920" height="614" viewBox="0 0 1920 614" fill="none" xmlns="http://www.w3.org/2000/svg">
<g opacity="0.68">
<path d="M445.063 238.911L471.764 405.798L-92.4687 528.178" stroke="white" stroke-opacity="0.2" stroke-width="0.25" stroke-linecap="round" stroke-linejoin="round"/>
<path d="M537.259 224.16L563.96 391.047L-90.2031 542.338" stroke="white" stroke-opacity="0.2" stroke-width="0.25" stroke-linecap="round" stroke-linejoin="round"/>
<path d="M629.454 209.409L656.155 376.296L-86.4289 565.932" stroke="white" stroke-opacity="0.2" stroke-width="0.25" stroke-linecap="round" stroke-linejoin="round"/>
<path d="M721.658 194.657L748.359 361.544L-78.4533 612.97" stroke="white" stroke-opacity="0.2" stroke-width="0.25" stroke-linecap="round" stroke-linejoin="round"/>
<path d="M813.852 179.906L840.553 346.793L436.076 530.648" stroke="white" stroke-opacity="0.2" stroke-width="0.25" stroke-linecap="round" stroke-linejoin="round"/>
<path d="M906.05 165.155L932.752 332.042L950.617 448.325" stroke="white" stroke-opacity="0.2" stroke-width="0.25" stroke-linecap="round" stroke-linejoin="round"/>
<path d="M998.254 150.403L1024.96 317.29L1465.15 366.002" stroke="white" stroke-opacity="0.2" stroke-width="0.25" stroke-linecap="round" stroke-linejoin="round"/>
<path d="M1090.45 135.652L1117.15 302.539L1979.68 283.68" stroke="white" stroke-opacity="0.2" stroke-width="0.25" stroke-linecap="round" stroke-linejoin="round"/>
<path d="M1182.65 120.9L1209.35 287.787L1974.38 236.325" stroke="white" stroke-opacity="0.2" stroke-width="0.25" stroke-linecap="round" stroke-linejoin="round"/>
<path d="M1274.85 106.149L1301.55 273.036L1970.59 212.683" stroke="white" stroke-opacity="0.2" stroke-width="0.25" stroke-linecap="round" stroke-linejoin="round"/>
<path d="M1367.05 91.3979L1393.75 258.285L1968.32 198.502" stroke="white" stroke-opacity="0.2" stroke-width="0.25" stroke-linecap="round" stroke-linejoin="round"/>
<path d="M1459.25 76.6458L1485.95 243.533L1966.81 189.048" stroke="white" stroke-opacity="0.2" stroke-width="0.25" stroke-linecap="round" stroke-linejoin="round"/>
<path d="M1551.45 61.8949L1578.15 228.782L1965.73 182.297" stroke="white" stroke-opacity="0.2" stroke-width="0.25" stroke-linecap="round" stroke-linejoin="round"/>
<path d="M1643.64 47.144L1670.34 214.031L1964.92 177.233" stroke="white" stroke-opacity="0.2" stroke-width="0.25" stroke-linecap="round" stroke-linejoin="round"/>
<path d="M1735.84 32.392L1762.55 199.279L1964.29 173.295" stroke="white" stroke-opacity="0.2" stroke-width="0.25" stroke-linecap="round" stroke-linejoin="round"/>
<path d="M1828.04 17.6411L1854.74 184.528L1963.79 170.145" stroke="white" stroke-opacity="0.2" stroke-width="0.25" stroke-linecap="round" stroke-linejoin="round"/>
<path d="M-95.0592 511.991L287.364 435.301L260.663 268.414" stroke="white" stroke-opacity="0.2" stroke-width="0.25" stroke-linecap="round" stroke-linejoin="round"/>
<path d="M352.859 253.663L379.56 420.55L-93.98 518.736" stroke="white" stroke-opacity="0.2" stroke-width="0.25" stroke-linecap="round" stroke-linejoin="round"/>
<path d="M168.468 283.165L195.17 450.052L-95.8703 506.934" stroke="white" stroke-opacity="0.2" stroke-width="0.25" stroke-linecap="round" stroke-linejoin="round"/>
<path d="M76.2623 297.917L102.963 464.804L-96.4974 502.998" stroke="white" stroke-opacity="0.2" stroke-width="0.25" stroke-linecap="round" stroke-linejoin="round"/>
<path d="M-15.9314 312.668L10.7698 479.555L-97.0018 499.85" stroke="white" stroke-opacity="0.2" stroke-width="0.25" stroke-linecap="round" stroke-linejoin="round"/>
<path d="M-99.5038 484.211L1961.28 154.495" stroke="white" stroke-opacity="0.2" stroke-width="0.25" stroke-linecap="round" stroke-linejoin="round"/>
<path d="M-101.53 471.546L1959.26 141.83" stroke="white" stroke-opacity="0.2" stroke-width="0.25" stroke-linecap="round" stroke-linejoin="round"/>
<path d="M-103.556 458.883L1957.23 129.167" stroke="white" stroke-opacity="0.2" stroke-width="0.25" stroke-linecap="round" stroke-linejoin="round"/>
<path d="M-105.582 446.22L1955.21 116.504" stroke="white" stroke-opacity="0.2" stroke-width="0.25" stroke-linecap="round" stroke-linejoin="round"/>
<path d="M-107.609 433.555L1953.18 103.839" stroke="white" stroke-opacity="0.2" stroke-width="0.25" stroke-linecap="round" stroke-linejoin="round"/>
<path d="M-109.635 420.892L1951.15 91.1761" stroke="white" stroke-opacity="0.2" stroke-width="0.25" stroke-linecap="round" stroke-linejoin="round"/>
<path d="M-111.661 408.229L1949.13 78.5129" stroke="white" stroke-opacity="0.2" stroke-width="0.25" stroke-linecap="round" stroke-linejoin="round"/>
<path d="M-113.687 395.564L1947.1 65.8484" stroke="white" stroke-opacity="0.2" stroke-width="0.25" stroke-linecap="round" stroke-linejoin="round"/>
<path d="M-115.713 382.901L1945.07 53.1848" stroke="white" stroke-opacity="0.2" stroke-width="0.25" stroke-linecap="round" stroke-linejoin="round"/>
<path d="M-117.739 370.238L1943.05 40.5218" stroke="white" stroke-opacity="0.2" stroke-width="0.25" stroke-linecap="round" stroke-linejoin="round"/>
<path d="M-119.766 357.573L1941.02 27.8571" stroke="white" stroke-opacity="0.2" stroke-width="0.25" stroke-linecap="round" stroke-linejoin="round"/>
<path d="M-121.791 344.909L1939 15.1936" stroke="white" stroke-opacity="0.2" stroke-width="0.25" stroke-linecap="round" stroke-linejoin="round"/>
<path d="M-123.818 332.245L1936.97 2.52957" stroke="white" stroke-opacity="0.2" stroke-width="0.25" stroke-linecap="round" stroke-linejoin="round"/>
<path d="M1972.22 222.873L-88.5639 552.589" stroke="white" stroke-opacity="0.2" stroke-width="0.25" stroke-linecap="round" stroke-linejoin="round"/>
<path d="M1970.66 213.084L-90.13 542.8" stroke="white" stroke-opacity="0.2" stroke-width="0.25" stroke-linecap="round" stroke-linejoin="round"/>
<path d="M1969.43 205.406L-91.3586 535.122" stroke="white" stroke-opacity="0.2" stroke-width="0.25" stroke-linecap="round" stroke-linejoin="round"/>
<path d="M1974.29 235.776L-86.4993 565.492" stroke="white" stroke-opacity="0.2" stroke-width="0.25" stroke-linecap="round" stroke-linejoin="round"/>
<path d="M1968.44 199.22L-92.3482 528.936" stroke="white" stroke-opacity="0.2" stroke-width="0.25" stroke-linecap="round" stroke-linejoin="round"/>
<path d="M1967.62 194.131L-93.1625 523.847" stroke="white" stroke-opacity="0.2" stroke-width="0.25" stroke-linecap="round" stroke-linejoin="round"/>
<path d="M1963.49 168.296L-97.2958 498.012" stroke="white" stroke-opacity="0.2" stroke-width="0.25" stroke-linecap="round" stroke-linejoin="round"/>
<path d="M1963.31 167.158L-97.4781 496.874" stroke="white" stroke-opacity="0.2" stroke-width="0.25" stroke-linecap="round" stroke-linejoin="round"/>
<path d="M1963.91 170.909L-96.8777 500.625" stroke="white" stroke-opacity="0.2" stroke-width="0.25" stroke-linecap="round" stroke-linejoin="round"/>
<path d="M1963.69 169.541L-97.0963 499.257" stroke="white" stroke-opacity="0.2" stroke-width="0.25" stroke-linecap="round" stroke-linejoin="round"/>
<path d="M1965.87 183.138L-94.9212 512.854" stroke="white" stroke-opacity="0.2" stroke-width="0.25" stroke-linecap="round" stroke-linejoin="round"/>
<path d="M1966.94 189.869L-93.8443 519.585" stroke="white" stroke-opacity="0.2" stroke-width="0.25" stroke-linecap="round" stroke-linejoin="round"/>
<path d="M1977.13 253.566L-83.6532 583.281" stroke="white" stroke-opacity="0.2" stroke-width="0.25" stroke-linecap="round" stroke-linejoin="round"/>
<path d="M1964.42 174.094L-96.3682 503.81" stroke="white" stroke-opacity="0.2" stroke-width="0.25" stroke-linecap="round" stroke-linejoin="round"/>
<path d="M1964.15 172.419L-96.6363 502.135" stroke="white" stroke-opacity="0.2" stroke-width="0.25" stroke-linecap="round" stroke-linejoin="round"/>
<path d="M1965.43 180.434L-95.354 510.15" stroke="white" stroke-opacity="0.2" stroke-width="0.25" stroke-linecap="round" stroke-linejoin="round"/>
<path d="M1965.05 178.06L-95.7338 507.776" stroke="white" stroke-opacity="0.2" stroke-width="0.25" stroke-linecap="round" stroke-linejoin="round"/>
<path d="M1964.72 175.962L-96.0692 505.678" stroke="white" stroke-opacity="0.2" stroke-width="0.25" stroke-linecap="round" stroke-linejoin="round"/>
<path d="M1966.36 186.25L-94.4234 515.966" stroke="white" stroke-opacity="0.2" stroke-width="0.25" stroke-linecap="round" stroke-linejoin="round"/>
<path d="M1979.68 283.68L-78.4533 612.971" stroke="white" stroke-opacity="0.2" stroke-width="0.25" stroke-linecap="round" stroke-linejoin="round"/>
</g>
</svg>
