<svg width="1920" height="1084" viewBox="0 0 1920 1084" fill="none" xmlns="http://www.w3.org/2000/svg">
<g opacity="0.4">
<path d="M521.483 0.542969V638.418L-54.9974 758.068" stroke="white" stroke-opacity="0.42" stroke-width="0.25" stroke-linecap="round" stroke-linejoin="round"/>
<path d="M614.852 0.542969V638.418L-54.9974 812.193" stroke="white" stroke-opacity="0.42" stroke-width="0.25" stroke-linecap="round" stroke-linejoin="round"/>
<path d="M708.22 0.542969V638.418L-54.998 902.374" stroke="white" stroke-opacity="0.42" stroke-width="0.25" stroke-linecap="round" stroke-linejoin="round"/>
<path d="M801.597 0.542969V638.418L-54.5538 1082.43" stroke="white" stroke-opacity="0.42" stroke-width="0.25" stroke-linecap="round" stroke-linejoin="round"/>
<path d="M894.963 0.542969V638.418L466.52 1082.43" stroke="white" stroke-opacity="0.42" stroke-width="0.25" stroke-linecap="round" stroke-linejoin="round"/>
<path d="M988.334 0.542969V638.418L987.604 1082.43" stroke="white" stroke-opacity="0.42" stroke-width="0.25" stroke-linecap="round" stroke-linejoin="round"/>
<path d="M1081.71 0.542969V638.418L1508.68 1082.43" stroke="white" stroke-opacity="0.42" stroke-width="0.25" stroke-linecap="round" stroke-linejoin="round"/>
<path d="M1175.08 0.542969V638.418L2029.75 1082.43" stroke="white" stroke-opacity="0.42" stroke-width="0.25" stroke-linecap="round" stroke-linejoin="round"/>
<path d="M1268.46 0.542969V638.418L2032 902.788" stroke="white" stroke-opacity="0.42" stroke-width="0.25" stroke-linecap="round" stroke-linejoin="round"/>
<path d="M1361.82 0.542969V638.418L2032 812.424" stroke="white" stroke-opacity="0.42" stroke-width="0.25" stroke-linecap="round" stroke-linejoin="round"/>
<path d="M1455.19 0.542969V638.418L2032 758.219" stroke="white" stroke-opacity="0.42" stroke-width="0.25" stroke-linecap="round" stroke-linejoin="round"/>
<path d="M1548.57 0.542969V638.418L2032 722.086" stroke="white" stroke-opacity="0.42" stroke-width="0.25" stroke-linecap="round" stroke-linejoin="round"/>
<path d="M1641.94 0.542969V638.418L2032 696.281" stroke="white" stroke-opacity="0.42" stroke-width="0.25" stroke-linecap="round" stroke-linejoin="round"/>
<path d="M1735.31 0.542969V638.418L2032 676.927" stroke="white" stroke-opacity="0.42" stroke-width="0.25" stroke-linecap="round" stroke-linejoin="round"/>
<path d="M1828.68 0.542969V638.418L2032 661.874" stroke="white" stroke-opacity="0.42" stroke-width="0.25" stroke-linecap="round" stroke-linejoin="round"/>
<path d="M-54.998 696.202L334.739 638.418V0.542969" stroke="white" stroke-opacity="0.42" stroke-width="0.25" stroke-linecap="round" stroke-linejoin="round"/>
<path d="M428.108 0.542969V638.418L-54.998 721.982" stroke="white" stroke-opacity="0.42" stroke-width="0.25" stroke-linecap="round" stroke-linejoin="round"/>
<path d="M241.371 0.542969V638.418L-55 676.87" stroke="white" stroke-opacity="0.42" stroke-width="0.25" stroke-linecap="round" stroke-linejoin="round"/>
<path d="M147.992 0.542969V638.418L-54.9974 661.826" stroke="white" stroke-opacity="0.42" stroke-width="0.25" stroke-linecap="round" stroke-linejoin="round"/>
<path d="M54.6264 0.542969V638.418L-54.998 649.794" stroke="white" stroke-opacity="0.42" stroke-width="0.25" stroke-linecap="round" stroke-linejoin="round"/>
<path d="M-54.998 590.017H2032" stroke="white" stroke-opacity="0.42" stroke-width="0.25" stroke-linecap="round" stroke-linejoin="round"/>
<path d="M-54.998 541.61H2032" stroke="white" stroke-opacity="0.42" stroke-width="0.25" stroke-linecap="round" stroke-linejoin="round"/>
<path d="M-54.998 493.209H2032" stroke="white" stroke-opacity="0.42" stroke-width="0.25" stroke-linecap="round" stroke-linejoin="round"/>
<path d="M-54.998 444.808H2032" stroke="white" stroke-opacity="0.42" stroke-width="0.25" stroke-linecap="round" stroke-linejoin="round"/>
<path d="M-54.998 396.401H2032" stroke="white" stroke-opacity="0.42" stroke-width="0.25" stroke-linecap="round" stroke-linejoin="round"/>
<path d="M-54.998 348H2032" stroke="white" stroke-opacity="0.42" stroke-width="0.25" stroke-linecap="round" stroke-linejoin="round"/>
<path d="M-54.998 299.598H2032" stroke="white" stroke-opacity="0.42" stroke-width="0.25" stroke-linecap="round" stroke-linejoin="round"/>
<path d="M-54.998 251.192H2032" stroke="white" stroke-opacity="0.42" stroke-width="0.25" stroke-linecap="round" stroke-linejoin="round"/>
<path d="M-54.998 202.79H2032" stroke="white" stroke-opacity="0.42" stroke-width="0.25" stroke-linecap="round" stroke-linejoin="round"/>
<path d="M-54.998 154.389H2032" stroke="white" stroke-opacity="0.42" stroke-width="0.25" stroke-linecap="round" stroke-linejoin="round"/>
<path d="M-54.998 105.982H2032" stroke="white" stroke-opacity="0.42" stroke-width="0.25" stroke-linecap="round" stroke-linejoin="round"/>
<path d="M-54.998 57.5808H2032" stroke="white" stroke-opacity="0.42" stroke-width="0.25" stroke-linecap="round" stroke-linejoin="round"/>
<path d="M-54.998 9.17507H2032" stroke="white" stroke-opacity="0.42" stroke-width="0.25" stroke-linecap="round" stroke-linejoin="round"/>
<path d="M2032 851.37H-54.998" stroke="white" stroke-opacity="0.42" stroke-width="0.25" stroke-linecap="round" stroke-linejoin="round"/>
<path d="M2032 813.957H-54.998" stroke="white" stroke-opacity="0.42" stroke-width="0.25" stroke-linecap="round" stroke-linejoin="round"/>
<path d="M2032 784.609H-54.998" stroke="white" stroke-opacity="0.42" stroke-width="0.25" stroke-linecap="round" stroke-linejoin="round"/>
<path d="M2032 900.689H-54.998" stroke="white" stroke-opacity="0.42" stroke-width="0.25" stroke-linecap="round" stroke-linejoin="round"/>
<path d="M2032 760.964H-54.998" stroke="white" stroke-opacity="0.42" stroke-width="0.25" stroke-linecap="round" stroke-linejoin="round"/>
<path d="M2032 741.512H-54.998" stroke="white" stroke-opacity="0.42" stroke-width="0.25" stroke-linecap="round" stroke-linejoin="round"/>
<path d="M2032 642.768H-54.998" stroke="white" stroke-opacity="0.42" stroke-width="0.25" stroke-linecap="round" stroke-linejoin="round"/>
<path d="M2032 638.418H-54.998" stroke="white" stroke-opacity="0.42" stroke-width="0.25" stroke-linecap="round" stroke-linejoin="round"/>
<path d="M2032 652.754H-54.998" stroke="white" stroke-opacity="0.42" stroke-width="0.25" stroke-linecap="round" stroke-linejoin="round"/>
<path d="M2032 647.527H-54.998" stroke="white" stroke-opacity="0.42" stroke-width="0.25" stroke-linecap="round" stroke-linejoin="round"/>
<path d="M2032 699.496H-54.998" stroke="white" stroke-opacity="0.42" stroke-width="0.25" stroke-linecap="round" stroke-linejoin="round"/>
<path d="M2032 725.224H-54.998" stroke="white" stroke-opacity="0.42" stroke-width="0.25" stroke-linecap="round" stroke-linejoin="round"/>
<path d="M2032 968.685H-54.998" stroke="white" stroke-opacity="0.42" stroke-width="0.25" stroke-linecap="round" stroke-linejoin="round"/>
<path d="M2032 664.928H-54.998" stroke="white" stroke-opacity="0.42" stroke-width="0.25" stroke-linecap="round" stroke-linejoin="round"/>
<path d="M2032 658.526H-54.998" stroke="white" stroke-opacity="0.42" stroke-width="0.25" stroke-linecap="round" stroke-linejoin="round"/>
<path d="M2032 689.161H-54.998" stroke="white" stroke-opacity="0.42" stroke-width="0.25" stroke-linecap="round" stroke-linejoin="round"/>
<path d="M2032 680.087H-54.998" stroke="white" stroke-opacity="0.42" stroke-width="0.25" stroke-linecap="round" stroke-linejoin="round"/>
<path d="M2032 672.069H-54.998" stroke="white" stroke-opacity="0.42" stroke-width="0.25" stroke-linecap="round" stroke-linejoin="round"/>
<path d="M2032 711.392H-54.998" stroke="white" stroke-opacity="0.42" stroke-width="0.25" stroke-linecap="round" stroke-linejoin="round"/>
<path d="M2029.75 1082.43H-54.5538" stroke="white" stroke-opacity="0.42" stroke-width="0.25" stroke-linecap="round" stroke-linejoin="round"/>
</g>
</svg>
