<svg width="1394" height="1298" viewBox="0 0 1394 1298" fill="none" xmlns="http://www.w3.org/2000/svg">
<path d="M0 1H1394M0 55.1692H1394M0 109.338H1394M0 163.508H1394M0 217.677H1394M0 271.846H1394M0 326.015H1394M0 380.184H1394M0 434.354H1394" stroke="url(#paint0_linear_1_274)" stroke-opacity="0.6"/>
<path d="M0 434.354H1394M0 488.524H1394M0 542.693H1394M0 596.862H1394M0 651.031H1394M0 705.201H1394M0 759.37H1394M0 813.539H1394M0 867.708H1394" stroke="url(#paint1_linear_1_274)" stroke-opacity="0.6"/>
<path d="M0 863.646H1394M0 917.815H1394M0 971.984H1394M0 1026.15H1394M0 1080.32H1394M0 1134.49H1394M0 1188.66H1394M0 1242.83H1394M0 1297H1394" stroke="url(#paint2_linear_1_274)" stroke-opacity="0.6"/>
<defs>
<linearGradient id="paint0_linear_1_274" x1="0.000108645" y1="217.672" x2="1393.73" y2="246.294" gradientUnits="userSpaceOnUse">
<stop stop-color="#A034D9" stop-opacity="0.34"/>
<stop offset="0.514801" stop-color="white" stop-opacity="0"/>
<stop offset="1" stop-color="white" stop-opacity="0"/>
</linearGradient>
<linearGradient id="paint1_linear_1_274" x1="0.000108645" y1="651.026" x2="1393.73" y2="679.648" gradientUnits="userSpaceOnUse">
<stop stop-color="#A034D9" stop-opacity="0.34"/>
<stop offset="0.514801" stop-color="white" stop-opacity="0"/>
<stop offset="1" stop-color="white" stop-opacity="0"/>
</linearGradient>
<linearGradient id="paint2_linear_1_274" x1="0.000108645" y1="1080.32" x2="1393.73" y2="1108.94" gradientUnits="userSpaceOnUse">
<stop stop-color="#A034D9" stop-opacity="0.34"/>
<stop offset="0.514801" stop-color="white" stop-opacity="0"/>
<stop offset="1" stop-color="white" stop-opacity="0"/>
</linearGradient>
</defs>
</svg>
