<svg width="1915" height="1137" viewBox="0 0 1915 1137" fill="none" xmlns="http://www.w3.org/2000/svg">
<g opacity="0.4">
<path d="M505.483 -47V590.875L-70.9974 710.525" stroke="white" stroke-opacity="0.42" stroke-width="0.25" stroke-linecap="round" stroke-linejoin="round"/>
<path d="M598.852 -47V590.875L-70.9974 764.65" stroke="white" stroke-opacity="0.42" stroke-width="0.25" stroke-linecap="round" stroke-linejoin="round"/>
<path d="M692.22 -47V590.875L-70.998 854.831" stroke="white" stroke-opacity="0.42" stroke-width="0.25" stroke-linecap="round" stroke-linejoin="round"/>
<path d="M785.597 -47V590.875L-70.5538 1034.89" stroke="white" stroke-opacity="0.42" stroke-width="0.25" stroke-linecap="round" stroke-linejoin="round"/>
<path d="M878.963 -47V590.875L450.52 1034.89" stroke="white" stroke-opacity="0.42" stroke-width="0.25" stroke-linecap="round" stroke-linejoin="round"/>
<path d="M972.334 -47V590.875L971.604 1034.89" stroke="white" stroke-opacity="0.42" stroke-width="0.25" stroke-linecap="round" stroke-linejoin="round"/>
<path d="M1065.71 -47V590.875L1492.68 1034.89" stroke="white" stroke-opacity="0.42" stroke-width="0.25" stroke-linecap="round" stroke-linejoin="round"/>
<path d="M1159.08 -47V590.875L2013.75 1034.89" stroke="white" stroke-opacity="0.42" stroke-width="0.25" stroke-linecap="round" stroke-linejoin="round"/>
<path d="M1252.46 -47V590.875L2016 855.245" stroke="white" stroke-opacity="0.42" stroke-width="0.25" stroke-linecap="round" stroke-linejoin="round"/>
<path d="M1345.82 -47V590.875L2016 764.881" stroke="white" stroke-opacity="0.42" stroke-width="0.25" stroke-linecap="round" stroke-linejoin="round"/>
<path d="M1439.19 -47V590.875L2016 710.676" stroke="white" stroke-opacity="0.42" stroke-width="0.25" stroke-linecap="round" stroke-linejoin="round"/>
<path d="M1532.57 -47V590.875L2016 674.543" stroke="white" stroke-opacity="0.42" stroke-width="0.25" stroke-linecap="round" stroke-linejoin="round"/>
<path d="M1625.94 -47V590.875L2016 648.738" stroke="white" stroke-opacity="0.42" stroke-width="0.25" stroke-linecap="round" stroke-linejoin="round"/>
<path d="M1719.31 -47V590.875L2016 629.384" stroke="white" stroke-opacity="0.42" stroke-width="0.25" stroke-linecap="round" stroke-linejoin="round"/>
<path d="M1812.68 -47V590.875L2016 614.331" stroke="white" stroke-opacity="0.42" stroke-width="0.25" stroke-linecap="round" stroke-linejoin="round"/>
<path d="M1906.05 -47V590.875L2016 602.293" stroke="white" stroke-opacity="0.42" stroke-width="0.25" stroke-linecap="round" stroke-linejoin="round"/>
<path d="M-70.998 648.659L318.739 590.875V-47" stroke="white" stroke-opacity="0.42" stroke-width="0.25" stroke-linecap="round" stroke-linejoin="round"/>
<path d="M412.108 -47V590.875L-70.998 674.439" stroke="white" stroke-opacity="0.42" stroke-width="0.25" stroke-linecap="round" stroke-linejoin="round"/>
<path d="M225.371 -47V590.875L-71 629.327" stroke="white" stroke-opacity="0.42" stroke-width="0.25" stroke-linecap="round" stroke-linejoin="round"/>
<path d="M131.992 -47V590.875L-70.9974 614.283" stroke="white" stroke-opacity="0.42" stroke-width="0.25" stroke-linecap="round" stroke-linejoin="round"/>
<path d="M38.6264 -47V590.875L-70.998 602.251" stroke="white" stroke-opacity="0.42" stroke-width="0.25" stroke-linecap="round" stroke-linejoin="round"/>
<path d="M-70.998 542.474H2016" stroke="white" stroke-opacity="0.42" stroke-width="0.25" stroke-linecap="round" stroke-linejoin="round"/>
<path d="M-70.998 494.067H2016" stroke="white" stroke-opacity="0.42" stroke-width="0.25" stroke-linecap="round" stroke-linejoin="round"/>
<path d="M-70.998 445.666H2016" stroke="white" stroke-opacity="0.42" stroke-width="0.25" stroke-linecap="round" stroke-linejoin="round"/>
<path d="M-70.998 397.265H2016" stroke="white" stroke-opacity="0.42" stroke-width="0.25" stroke-linecap="round" stroke-linejoin="round"/>
<path d="M-70.998 348.858H2016" stroke="white" stroke-opacity="0.42" stroke-width="0.25" stroke-linecap="round" stroke-linejoin="round"/>
<path d="M-70.998 300.457H2016" stroke="white" stroke-opacity="0.42" stroke-width="0.25" stroke-linecap="round" stroke-linejoin="round"/>
<path d="M-70.998 252.055H2016" stroke="white" stroke-opacity="0.42" stroke-width="0.25" stroke-linecap="round" stroke-linejoin="round"/>
<path d="M-70.998 203.649H2016" stroke="white" stroke-opacity="0.42" stroke-width="0.25" stroke-linecap="round" stroke-linejoin="round"/>
<path d="M-70.998 155.247H2016" stroke="white" stroke-opacity="0.42" stroke-width="0.25" stroke-linecap="round" stroke-linejoin="round"/>
<path d="M-70.998 106.846H2016" stroke="white" stroke-opacity="0.42" stroke-width="0.25" stroke-linecap="round" stroke-linejoin="round"/>
<path d="M-70.998 58.4392H2016" stroke="white" stroke-opacity="0.42" stroke-width="0.25" stroke-linecap="round" stroke-linejoin="round"/>
<path d="M-70.998 10.0379H2016" stroke="white" stroke-opacity="0.42" stroke-width="0.25" stroke-linecap="round" stroke-linejoin="round"/>
<path d="M2016 803.827H-70.998" stroke="white" stroke-opacity="0.42" stroke-width="0.25" stroke-linecap="round" stroke-linejoin="round"/>
<path d="M2016 766.414H-70.998" stroke="white" stroke-opacity="0.42" stroke-width="0.25" stroke-linecap="round" stroke-linejoin="round"/>
<path d="M2016 737.066H-70.998" stroke="white" stroke-opacity="0.42" stroke-width="0.25" stroke-linecap="round" stroke-linejoin="round"/>
<path d="M2016 853.146H-70.998" stroke="white" stroke-opacity="0.42" stroke-width="0.25" stroke-linecap="round" stroke-linejoin="round"/>
<path d="M2016 713.421H-70.998" stroke="white" stroke-opacity="0.42" stroke-width="0.25" stroke-linecap="round" stroke-linejoin="round"/>
<path d="M2016 693.969H-70.998" stroke="white" stroke-opacity="0.42" stroke-width="0.25" stroke-linecap="round" stroke-linejoin="round"/>
<path d="M2016 595.225H-70.998" stroke="white" stroke-opacity="0.42" stroke-width="0.25" stroke-linecap="round" stroke-linejoin="round"/>
<path d="M2016 590.875H-70.998" stroke="white" stroke-opacity="0.42" stroke-width="0.25" stroke-linecap="round" stroke-linejoin="round"/>
<path d="M2016 605.211H-70.998" stroke="white" stroke-opacity="0.42" stroke-width="0.25" stroke-linecap="round" stroke-linejoin="round"/>
<path d="M2016 599.984H-70.998" stroke="white" stroke-opacity="0.42" stroke-width="0.25" stroke-linecap="round" stroke-linejoin="round"/>
<path d="M2016 651.953H-70.998" stroke="white" stroke-opacity="0.42" stroke-width="0.25" stroke-linecap="round" stroke-linejoin="round"/>
<path d="M2016 677.681H-70.998" stroke="white" stroke-opacity="0.42" stroke-width="0.25" stroke-linecap="round" stroke-linejoin="round"/>
<path d="M2016 921.142H-70.998" stroke="white" stroke-opacity="0.42" stroke-width="0.25" stroke-linecap="round" stroke-linejoin="round"/>
<path d="M2016 617.385H-70.998" stroke="white" stroke-opacity="0.42" stroke-width="0.25" stroke-linecap="round" stroke-linejoin="round"/>
<path d="M2016 610.983H-70.998" stroke="white" stroke-opacity="0.42" stroke-width="0.25" stroke-linecap="round" stroke-linejoin="round"/>
<path d="M2016 641.618H-70.998" stroke="white" stroke-opacity="0.42" stroke-width="0.25" stroke-linecap="round" stroke-linejoin="round"/>
<path d="M2016 632.544H-70.998" stroke="white" stroke-opacity="0.42" stroke-width="0.25" stroke-linecap="round" stroke-linejoin="round"/>
<path d="M2016 624.526H-70.998" stroke="white" stroke-opacity="0.42" stroke-width="0.25" stroke-linecap="round" stroke-linejoin="round"/>
<path d="M2016 663.849H-70.998" stroke="white" stroke-opacity="0.42" stroke-width="0.25" stroke-linecap="round" stroke-linejoin="round"/>
<path d="M2013.75 1034.89H-70.5538" stroke="white" stroke-opacity="0.42" stroke-width="0.25" stroke-linecap="round" stroke-linejoin="round"/>
</g>
<path opacity="0.7" d="M-101.794 324.77L18.9811 438.092C280.461 683.436 691.322 670.356 936.667 408.876V408.876C1182.01 147.397 1592.87 134.316 1854.35 379.661L2534.08 1017.45" stroke="url(#paint0_linear_3979_255)" stroke-width="4" stroke-dasharray="1 32"/>
<path opacity="0.7" d="M-98.812 346.964L21.9628 460.286C283.442 705.631 694.304 692.55 939.648 431.071V431.071C1184.99 169.591 1595.85 156.511 1857.33 401.855L2537.07 1039.64" stroke="url(#paint1_linear_3979_255)" stroke-width="4" stroke-dasharray="1 32"/>
<path opacity="0.7" d="M-95.9646 371.154L24.8101 484.476C286.29 729.82 697.151 716.74 942.496 455.26V455.26C1187.84 193.781 1598.7 180.7 1860.18 426.045L2539.91 1063.83" stroke="url(#paint2_linear_3979_255)" stroke-width="4" stroke-dasharray="1 32"/>
<path d="M760 326H2108M760 347.024H2108M760 368.048H2108M760 389.072H2108M760 410.096H2108M760 431.12H2108M760 452.144H2108M760 473.168H2108M760 494.192H2108" stroke="url(#paint3_linear_3979_255)" stroke-opacity="0.6"/>
<path d="M760 494.193H2108M760 515.217H2108M760 536.241H2108M760 557.265H2108M760 578.289H2108M760 599.313H2108M760 620.337H2108M760 641.361H2108M760 662.385H2108" stroke="url(#paint4_linear_3979_255)" stroke-opacity="0.6"/>
<path d="M760 660.808H2108M760 681.832H2108M760 702.856H2108M760 723.88H2108M760 744.904H2108M760 765.928H2108M760 786.952H2108M760 807.976H2108M760 829H2108" stroke="url(#paint5_linear_3979_255)" stroke-opacity="0.6"/>
<defs>
<linearGradient id="paint0_linear_3979_255" x1="-207.358" y1="253.247" x2="2658.3" y2="965.077" gradientUnits="userSpaceOnUse">
<stop stop-color="#7A42F4"/>
<stop offset="0.0001" stop-color="#7A42F4"/>
<stop offset="1" stop-color="#E64AFF" stop-opacity="0.38"/>
</linearGradient>
<linearGradient id="paint1_linear_3979_255" x1="-204.377" y1="275.442" x2="2661.28" y2="987.272" gradientUnits="userSpaceOnUse">
<stop stop-color="#7A42F4"/>
<stop offset="0.0001" stop-color="#7A42F4"/>
<stop offset="1" stop-color="#E64AFF" stop-opacity="0.38"/>
</linearGradient>
<linearGradient id="paint2_linear_3979_255" x1="-201.529" y1="299.631" x2="2664.13" y2="1011.46" gradientUnits="userSpaceOnUse">
<stop stop-color="#7A42F4"/>
<stop offset="0.0001" stop-color="#7A42F4"/>
<stop offset="1" stop-color="#E64AFF" stop-opacity="0.38"/>
</linearGradient>
<linearGradient id="paint3_linear_3979_255" x1="760" y1="410.094" x2="2104.79" y2="478.903" gradientUnits="userSpaceOnUse">
<stop stop-color="#A034D9" stop-opacity="0.34"/>
<stop offset="0.514801" stop-color="white" stop-opacity="0"/>
<stop offset="1" stop-color="white" stop-opacity="0"/>
</linearGradient>
<linearGradient id="paint4_linear_3979_255" x1="760" y1="578.287" x2="2104.79" y2="647.096" gradientUnits="userSpaceOnUse">
<stop stop-color="#A034D9" stop-opacity="0.34"/>
<stop offset="0.514801" stop-color="white" stop-opacity="0"/>
<stop offset="1" stop-color="white" stop-opacity="0"/>
</linearGradient>
<linearGradient id="paint5_linear_3979_255" x1="760" y1="744.902" x2="2104.79" y2="813.711" gradientUnits="userSpaceOnUse">
<stop stop-color="#A034D9" stop-opacity="0.34"/>
<stop offset="0.514801" stop-color="white" stop-opacity="0"/>
<stop offset="1" stop-color="white" stop-opacity="0"/>
</linearGradient>
</defs>
</svg>
